<?xml version="1.0" encoding="utf-8"?>
<!-- Generator: Adobe Illustrator 18.0.0, SVG Export Plug-In . SVG Version: 6.00 Build 0)  -->
<!DOCTYPE svg PUBLIC "-//W3C//DTD SVG 1.1//EN" "http://www.w3.org/Graphics/SVG/1.1/DTD/svg11.dtd">
<svg version="1.1" xmlns="http://www.w3.org/2000/svg" xmlns:xlink="http://www.w3.org/1999/xlink" x="0px" y="0px"
	 viewBox="0 0 180 180" style="enable-background:new 0 0 180 180;" xml:space="preserve">
<g id="background">
	<rect x="0.1" y="-0.3" width="179.9" height="180.3"/>
</g>
<g id="sun-dial">
	<g id="guides">
	</g>
	<path id="border" style="fill:none;stroke:#4D4D4D;stroke-width:3;stroke-miterlimit:10;" d="M20,90c0-38.7,31.3-70,70-70
		s70,31.3,70,70"/>
	<g id="dial">
		<defs>
			<path id="mask" d="M160,90H20c0-38.7,31.3-70,70-70S160,51.3,160,90z"/>
		</defs>
		<clipPath id="mask_1_">
			<use xlink:href="#mask"  style="overflow:visible;"/>
		</clipPath>
		
			<radialGradient id="sun_1_" cx="780" cy="1760" r="70" gradientTransform="matrix(-1 0 0 -1 870 1850)" gradientUnits="userSpaceOnUse">
			<stop  offset="0" style="stop-color:#F88E20"/>
			<stop  offset="1" style="stop-color:#F65A30"/>
		</radialGradient>
		<circle id="sun" style="clip-path:url(#mask_1_);fill:url(#sun_1_);" cx="90" cy="90" r="70"/>
	</g>
	<path id="clip-path" d="M160,90H20c0-38.7,31.3-70,70-70S160,51.3,160,90z"/>
	<text id="min" transform="matrix(1 0 0 1 17.5 106.5791)" style="fill:#FFFFFF; font-family:'Calibri'; font-size:18;">0</text>
	<text id="max" transform="matrix(1 0 0 1 160 106.5791)" style="fill:#FFFFFF; font-family:'Calibri'; font-size:18;">0</text>
	<text id="value" transform="matrix(1 0 0 1 90 140)" style="fill:#FFFFFF; font-family:'Calibri'; font-size:48;">0</text>
	<text id="units" transform="matrix(1 0 0 1 90 165)" style="fill:#FFFFFF; font-family:'Calibri'; font-size:21;">0</text>
</g>
</svg>
