<?xml version="1.0" encoding="utf-8"?>
<!-- Generator: Adobe Illustrator 18.0.0, SVG Export Plug-In . SVG Version: 6.00 Build 0)  -->
<!DOCTYPE svg PUBLIC "-//W3C//DTD SVG 1.1//EN" "http://www.w3.org/Graphics/SVG/1.1/DTD/svg11.dtd">
<svg version="1.1" xmlns="http://www.w3.org/2000/svg" xmlns:xlink="http://www.w3.org/1999/xlink" x="0px" y="0px"
	 viewBox="0 1000 1000 1000" enable-background="new 0 1000 1000 1000" xml:space="preserve">
<g id="gyro">
	<rect y="1000" stroke="#000000" stroke-miterlimit="10" width="1000" height="1000"/>
	<circle fill="#FFFFFF" stroke="#00FFFF" stroke-width="8" cx="500" cy="1500" r="270"/>
	<rect x="230" y="1500" fill="#FFFFFF" width="540" height="270"/>
	<desc>Created with Snap</desc>
	<g id="gauge">
		
			<radialGradient id="horizon_1_" cx="0.5" cy="997.6481" r="0.5" gradientTransform="matrix(540 0 0 -540 230 540230)" gradientUnits="userSpaceOnUse">
			<stop  offset="0" style="stop-color:#F99E39"/>
			<stop  offset="1" style="stop-color:#ED6430"/>
		</radialGradient>
		<circle id="horizon" fill="url(#horizon_1_)" cx="500" cy="1500" r="270"/>
		<g id="pitch_mask">
			<g id="pitch_gauge">
				<line fill="none" stroke="#FFFFFF" stroke-width="4" x1="450" y1="1500" x2="550" y2="1500"/>
				<line fill="none" stroke="#FFFFFF" stroke-width="4" x1="450" y1="1500" x2="550" y2="1500"/>
				<text transform="matrix(1 0 0 1 397.3291 1500)" fill="#FFFFFF" font-family="'Calibri'" font-size="50">0</text>
				<text transform="matrix(1 0 0 1 577.3291 1500)" fill="#FFFFFF" font-family="'Calibri'" font-size="50">0</text>
				<line fill="none" stroke="#FFFFFF" stroke-width="4" x1="450" y1="1575" x2="550" y2="1575"/>
				<line fill="none" stroke="#FFFFFF" stroke-width="4" x1="450" y1="1425" x2="550" y2="1425"/>
				<text transform="matrix(1 0 0 1 397.3291 1425)" fill="#FFFFFF" font-family="'Calibri'" font-size="50">5</text>
				<text transform="matrix(1 0 0 1 577.3291 1425)" fill="#FFFFFF" font-family="'Calibri'" font-size="50">5</text>
				<text transform="matrix(1 0 0 1 389.6753 1575)" fill="#FFFFFF" font-family="'Calibri'" font-size="50">-5</text>
				<text transform="matrix(1 0 0 1 569.6753 1575)" fill="#FFFFFF" font-family="'Calibri'" font-size="50">-5</text>
				<line fill="none" stroke="#FFFFFF" stroke-width="4" x1="450" y1="1650" x2="550" y2="1650"/>
				<line fill="none" stroke="#FFFFFF" stroke-width="4" x1="450" y1="1350" x2="550" y2="1350"/>
				<text transform="matrix(1 0 0 1 384.6582 1350)" fill="#FFFFFF" font-family="'Calibri'" font-size="50">10</text>
				<text transform="matrix(1 0 0 1 564.6582 1350)" fill="#FFFFFF" font-family="'Calibri'" font-size="50">10</text>
				<text transform="matrix(1 0 0 1 377.0044 1650)" fill="#FFFFFF" font-family="'Calibri'" font-size="50">-10</text>
				<text transform="matrix(1 0 0 1 557.0044 1650)" fill="#FFFFFF" font-family="'Calibri'" font-size="50">-10</text>
				<line fill="none" stroke="#FFFFFF" stroke-width="4" x1="450" y1="1725" x2="550" y2="1725"/>
				<line fill="none" stroke="#FFFFFF" stroke-width="4" x1="450" y1="1275" x2="550" y2="1275"/>
				<text transform="matrix(1 0 0 1 384.6582 1275)" fill="#FFFFFF" font-family="'Calibri'" font-size="50">15</text>
				<text transform="matrix(1 0 0 1 564.6582 1275)" fill="#FFFFFF" font-family="'Calibri'" font-size="50">15</text>
				<text transform="matrix(1 0 0 1 377.0044 1725)" fill="#FFFFFF" font-family="'Calibri'" font-size="50">-15</text>
				<text transform="matrix(1 0 0 1 557.0044 1725)" fill="#FFFFFF" font-family="'Calibri'" font-size="50">-15</text>
				<line fill="none" stroke="#FFFFFF" stroke-width="4" x1="450" y1="1800" x2="550" y2="1800"/>
				<line fill="none" stroke="#FFFFFF" stroke-width="4" x1="450" y1="1200" x2="550" y2="1200"/>
				<text transform="matrix(1 0 0 1 384.6582 1200)" fill="#FFFFFF" font-family="'Calibri'" font-size="50">20</text>
				<text transform="matrix(1 0 0 1 564.6582 1200)" fill="#FFFFFF" font-family="'Calibri'" font-size="50">20</text>
				<text transform="matrix(1 0 0 1 377.0044 1800)" fill="#FFFFFF" font-family="'Calibri'" font-size="50">-20</text>
				<text transform="matrix(1 0 0 1 557.0044 1800)" fill="#FFFFFF" font-family="'Calibri'" font-size="50">-20</text>
				<line fill="none" stroke="#FFFFFF" stroke-width="4" x1="450" y1="1875" x2="550" y2="1875"/>
				<line fill="none" stroke="#FFFFFF" stroke-width="4" x1="450" y1="1125" x2="550" y2="1125"/>
				<text transform="matrix(1 0 0 1 384.6582 1125)" fill="#FFFFFF" font-family="'Calibri'" font-size="50">25</text>
				<text transform="matrix(1 0 0 1 564.6582 1125)" fill="#FFFFFF" font-family="'Calibri'" font-size="50">25</text>
				<text transform="matrix(1 0 0 1 377.0044 1875)" fill="#FFFFFF" font-family="'Calibri'" font-size="50">-25</text>
				<text transform="matrix(1 0 0 1 557.0044 1875)" fill="#FFFFFF" font-family="'Calibri'" font-size="50">-25</text>
				<line fill="none" stroke="#FFFFFF" stroke-width="4" x1="450" y1="1950" x2="550" y2="1950"/>
				<line fill="none" stroke="#FFFFFF" stroke-width="4" x1="450" y1="1050" x2="550" y2="1050"/>
				<text transform="matrix(1 0 0 1 384.6582 1050)" fill="#FFFFFF" font-family="'Calibri'" font-size="50">30</text>
				<text transform="matrix(1 0 0 1 564.6582 1050)" fill="#FFFFFF" font-family="'Calibri'" font-size="50">30</text>
				<text transform="matrix(1 0 0 1 377.0044 1950)" fill="#FFFFFF" font-family="'Calibri'" font-size="50">-30</text>
				<text transform="matrix(1 0 0 1 557.0044 1950)" fill="#FFFFFF" font-family="'Calibri'" font-size="50">-30</text>
				<line fill="none" stroke="#FFFFFF" stroke-width="4" x1="450" y1="2025" x2="550" y2="2025"/>
				<line fill="none" stroke="#FFFFFF" stroke-width="4" x1="450" y1="975" x2="550" y2="975"/>
				<text transform="matrix(1 0 0 1 384.6582 975)" fill="#FFFFFF" font-family="'Calibri'" font-size="50">35</text>
				<text transform="matrix(1 0 0 1 564.6582 975)" fill="#FFFFFF" font-family="'Calibri'" font-size="50">35</text>
				<text transform="matrix(1 0 0 1 377.0044 2025)" fill="#FFFFFF" font-family="'Calibri'" font-size="50">-35</text>
				<text transform="matrix(1 0 0 1 557.0044 2025)" fill="#FFFFFF" font-family="'Calibri'" font-size="50">-35</text>
				<line fill="none" stroke="#FFFFFF" stroke-width="4" x1="450" y1="2100" x2="550" y2="2100"/>
				<line fill="none" stroke="#FFFFFF" stroke-width="4" x1="450" y1="900" x2="550" y2="900"/>
				<text transform="matrix(1 0 0 1 384.6582 900)" fill="#FFFFFF" font-family="'Calibri'" font-size="50">40</text>
				<text transform="matrix(1 0 0 1 564.6582 900)" fill="#FFFFFF" font-family="'Calibri'" font-size="50">40</text>
				<text transform="matrix(1 0 0 1 377.0044 2100)" fill="#FFFFFF" font-family="'Calibri'" font-size="50">-40</text>
				<text transform="matrix(1 0 0 1 557.0044 2100)" fill="#FFFFFF" font-family="'Calibri'" font-size="50">-40</text>
				<line fill="none" stroke="#FFFFFF" stroke-width="4" x1="450" y1="2175" x2="550" y2="2175"/>
				<line fill="none" stroke="#FFFFFF" stroke-width="4" x1="450" y1="825" x2="550" y2="825"/>
				<text transform="matrix(1 0 0 1 384.6582 825)" fill="#FFFFFF" font-family="'Calibri'" font-size="50">45</text>
				<text transform="matrix(1 0 0 1 564.6582 825)" fill="#FFFFFF" font-family="'Calibri'" font-size="50">45</text>
				<text transform="matrix(1 0 0 1 377.0044 2175)" fill="#FFFFFF" font-family="'Calibri'" font-size="50">-45</text>
				<text transform="matrix(1 0 0 1 557.0044 2175)" fill="#FFFFFF" font-family="'Calibri'" font-size="50">-45</text>
			</g>
		</g>
	</g>
	<g id="legend">
		<circle fill="none" stroke="#00FFFF" stroke-width="8" cx="500" cy="1500" r="270"/>
		<polyline fill="none" stroke="#FF0000" stroke-width="8" stroke-miterlimit="10" points="770.6,1500 575,1500 550,1525 500,1475 
			450,1525 425,1500 229.4,1500 		"/>
		<g id="ticks_thick">
			<line fill="none" stroke="#FFFFFF" stroke-width="8" x1="726.3" y1="1273.7" x2="761.6" y2="1238.4"/>
			<line fill="none" stroke="#FFFFFF" stroke-width="8" x1="273.7" y1="1273.7" x2="238.4" y2="1238.4"/>
			<line fill="none" stroke="#FFFFFF" stroke-width="8" x1="777.1" y1="1340" x2="820.4" y2="1315"/>
			<line fill="none" stroke="#FFFFFF" stroke-width="8" x1="222.9" y1="1340" x2="179.6" y2="1315"/>
			<line fill="none" stroke="#FFFFFF" stroke-width="8" x1="809.1" y1="1417.2" x2="857.4" y2="1404.2"/>
			<line fill="none" stroke="#FFFFFF" stroke-width="8" x1="190.9" y1="1417.2" x2="142.6" y2="1404.2"/>
			<line fill="none" stroke="#FFFFFF" stroke-width="8" x1="820" y1="1500" x2="870" y2="1500"/>
			<line fill="none" stroke="#FFFFFF" stroke-width="8" x1="180" y1="1500" x2="130" y2="1500"/>
			<line fill="none" stroke="#FFFFFF" stroke-width="8" x1="809.1" y1="1582.8" x2="857.4" y2="1595.8"/>
			<line fill="none" stroke="#FFFFFF" stroke-width="8" x1="190.9" y1="1582.8" x2="142.6" y2="1595.8"/>
			<line fill="none" stroke="#FFFFFF" stroke-width="8" x1="777.1" y1="1660" x2="820.4" y2="1685"/>
			<line fill="none" stroke="#FFFFFF" stroke-width="8" x1="222.9" y1="1660" x2="179.6" y2="1685"/>
			<line fill="none" stroke="#FFFFFF" stroke-width="8" x1="726.3" y1="1726.3" x2="761.6" y2="1761.6"/>
			<line fill="none" stroke="#FFFFFF" stroke-width="8" x1="273.7" y1="1726.3" x2="238.4" y2="1761.6"/>
		</g>
		<g id="ticks_thin">
			<line fill="none" stroke="#FFFFFF" stroke-width="2" x1="726.3" y1="1273.7" x2="761.6" y2="1238.4"/>
			<line fill="none" stroke="#FFFFFF" stroke-width="2" x1="273.7" y1="1273.7" x2="238.4" y2="1238.4"/>
			<line fill="none" stroke="#FFFFFF" stroke-width="2" x1="745.1" y1="1294.3" x2="783.4" y2="1262.1"/>
			<line fill="none" stroke="#FFFFFF" stroke-width="2" x1="254.9" y1="1294.3" x2="216.6" y2="1262.2"/>
			<line fill="none" stroke="#FFFFFF" stroke-width="2" x1="762.1" y1="1316.5" x2="803.1" y2="1287.8"/>
			<line fill="none" stroke="#FFFFFF" stroke-width="2" x1="237.9" y1="1316.4" x2="196.9" y2="1287.8"/>
			<line fill="none" stroke="#FFFFFF" stroke-width="2" x1="777.1" y1="1340" x2="820.4" y2="1315"/>
			<line fill="none" stroke="#FFFFFF" stroke-width="2" x1="222.9" y1="1340" x2="179.6" y2="1315"/>
			<line fill="none" stroke="#FFFFFF" stroke-width="2" x1="790" y1="1364.8" x2="835.3" y2="1343.6"/>
			<line fill="none" stroke="#FFFFFF" stroke-width="2" x1="210" y1="1364.8" x2="164.7" y2="1343.6"/>
			<line fill="none" stroke="#FFFFFF" stroke-width="2" x1="800.7" y1="1390.6" x2="847.7" y2="1373.5"/>
			<line fill="none" stroke="#FFFFFF" stroke-width="2" x1="199.3" y1="1390.5" x2="152.3" y2="1373.4"/>
			<line fill="none" stroke="#FFFFFF" stroke-width="2" x1="809.1" y1="1417.2" x2="857.4" y2="1404.2"/>
			<line fill="none" stroke="#FFFFFF" stroke-width="2" x1="190.9" y1="1417.2" x2="142.6" y2="1404.2"/>
			<line fill="none" stroke="#FFFFFF" stroke-width="2" x1="815.1" y1="1444.4" x2="864.4" y2="1435.7"/>
			<line fill="none" stroke="#FFFFFF" stroke-width="2" x1="184.8" y1="1444.4" x2="135.6" y2="1435.7"/>
			<line fill="none" stroke="#FFFFFF" stroke-width="2" x1="818.8" y1="1472.1" x2="868.6" y2="1467.8"/>
			<line fill="none" stroke="#FFFFFF" stroke-width="2" x1="181.2" y1="1472.1" x2="131.4" y2="1467.8"/>
			<line fill="none" stroke="#FFFFFF" stroke-width="2" x1="820" y1="1500" x2="870" y2="1500"/>
			<line fill="none" stroke="#FFFFFF" stroke-width="2" x1="180" y1="1500" x2="130" y2="1500"/>
			<line fill="none" stroke="#FFFFFF" stroke-width="2" x1="818.8" y1="1527.9" x2="868.6" y2="1532.2"/>
			<line fill="none" stroke="#FFFFFF" stroke-width="2" x1="181.2" y1="1527.9" x2="131.4" y2="1532.2"/>
			<line fill="none" stroke="#FFFFFF" stroke-width="2" x1="815.2" y1="1555.6" x2="864.4" y2="1564.3"/>
			<line fill="none" stroke="#FFFFFF" stroke-width="2" x1="184.9" y1="1555.6" x2="135.6" y2="1564.3"/>
			<line fill="none" stroke="#FFFFFF" stroke-width="2" x1="809.1" y1="1582.8" x2="857.4" y2="1595.8"/>
			<line fill="none" stroke="#FFFFFF" stroke-width="2" x1="190.9" y1="1582.8" x2="142.6" y2="1595.8"/>
			<line fill="none" stroke="#FFFFFF" stroke-width="2" x1="800.7" y1="1609.5" x2="847.7" y2="1626.6"/>
			<line fill="none" stroke="#FFFFFF" stroke-width="2" x1="199.3" y1="1609.4" x2="152.3" y2="1626.5"/>
			<line fill="none" stroke="#FFFFFF" stroke-width="2" x1="790" y1="1635.2" x2="835.3" y2="1656.4"/>
			<line fill="none" stroke="#FFFFFF" stroke-width="2" x1="210" y1="1635.2" x2="164.7" y2="1656.4"/>
			<line fill="none" stroke="#FFFFFF" stroke-width="2" x1="777.1" y1="1660" x2="820.4" y2="1685"/>
			<line fill="none" stroke="#FFFFFF" stroke-width="2" x1="222.9" y1="1660" x2="179.6" y2="1685"/>
			<line fill="none" stroke="#FFFFFF" stroke-width="2" x1="762.1" y1="1683.6" x2="803.1" y2="1712.2"/>
			<line fill="none" stroke="#FFFFFF" stroke-width="2" x1="237.9" y1="1683.5" x2="196.9" y2="1712.2"/>
			<line fill="none" stroke="#FFFFFF" stroke-width="2" x1="745.1" y1="1705.7" x2="783.4" y2="1737.8"/>
			<line fill="none" stroke="#FFFFFF" stroke-width="2" x1="254.9" y1="1705.7" x2="216.6" y2="1737.9"/>
			<line fill="none" stroke="#FFFFFF" stroke-width="2" x1="726.3" y1="1726.3" x2="761.6" y2="1761.6"/>
			<line fill="none" stroke="#FFFFFF" stroke-width="2" x1="273.7" y1="1726.3" x2="238.4" y2="1761.6"/>
		</g>
		<g id="degree_labels">
			<text transform="matrix(1 0 0 1 787.7879 1201.802)" fill="#FFFFFF" font-family="'Calibri-Bold'" font-size="60">45</text>
			<text transform="matrix(1 0 0 1 151.3918 1201.802)" fill="#FFFFFF" font-family="'Calibri-Bold'" font-size="60">45</text>
			<text transform="matrix(1 0 0 1 859.3013 1295)" fill="#FFFFFF" font-family="'Calibri-Bold'" font-size="60">30</text>
			<text transform="matrix(1 0 0 1 79.8784 1295)" fill="#FFFFFF" font-family="'Calibri-Bold'" font-size="60">30</text>
			<text transform="matrix(1 0 0 1 904.2565 1403.5315)" fill="#FFFFFF" font-family="'Calibri-Bold'" font-size="60">15</text>
			<text transform="matrix(1 0 0 1 34.9232 1403.5315)" fill="#FFFFFF" font-family="'Calibri-Bold'" font-size="60">15</text>
			<text transform="matrix(1 0 0 1 934.7949 1520)" fill="#FFFFFF" font-family="'Calibri-Bold'" font-size="60">0</text>
			<text transform="matrix(1 0 0 1 34.7949 1520)" fill="#FFFFFF" font-family="'Calibri-Bold'" font-size="60">0</text>
			<text transform="matrix(1 0 0 1 895.0719 1636.4685)" fill="#FFFFFF" font-family="'Calibri-Bold'" font-size="60">-15</text>
			<text transform="matrix(1 0 0 1 25.7386 1636.4685)" fill="#FFFFFF" font-family="'Calibri-Bold'" font-size="60">-15</text>
			<text transform="matrix(1 0 0 1 850.1167 1745)" fill="#FFFFFF" font-family="'Calibri-Bold'" font-size="60">-30</text>
			<text transform="matrix(1 0 0 1 70.6938 1745)" fill="#FFFFFF" font-family="'Calibri-Bold'" font-size="60">-30</text>
			<text transform="matrix(1 0 0 1 778.6033 1838.198)" fill="#FFFFFF" font-family="'Calibri-Bold'" font-size="60">-45</text>
			<text transform="matrix(1 0 0 1 142.2072 1838.198)" fill="#FFFFFF" font-family="'Calibri-Bold'" font-size="60">-45</text>
			<text transform="matrix(1 0 0 1 466.0352 1100)" fill="#FFFFFF" font-family="'Calibri-Bold'" font-size="80">0°</text>
			<text transform="matrix(1 0 0 1 446.6211 1180)" fill="#FFFFFF" font-family="'Calibri-Bold'" font-size="60">lean</text>
			<text transform="matrix(1 0 0 1 466.0352 1940)" fill="#FFFFFF" font-family="'Calibri-Bold'" font-size="80">0°</text>
			<text transform="matrix(1 0 0 1 441.2891 1860)" fill="#FFFFFF" font-family="'Calibri-Bold'" font-size="60">level</text>
		</g>
	</g>
	<polygon id="marker_left" fill="#FF0000" points="235,1475 235,1525 185,1500 	"/>
	<polygon id="marker_right" fill="#FF0000" points="765,1525 765,1475 815,1500 	"/>
	<circle fill="none" cx="499" cy="1497" r="447"/>
</g>
<g id="guides">
</g>
</svg>
